<svg xmlns="http://www.w3.org/2000/svg" viewBox="0 0 64 64" fill="none">
  <defs>
    <linearGradient id="g" x1="8" y1="12" x2="56" y2="52" gradientUnits="userSpaceOnUse">
      <stop stop-color="#818cf8"/>
      <stop offset="1" stop-color="#4f46e5"/>
    </linearGradient>
  </defs>
  <path fill="url(#g)" d="M8 36c0-8 6-14 14-16 2-6 8-10 15-10 10 0 18 7 19 17v1c0 11-9 20-20 20-6 0-11-2-15-6l-4 10-2-12c-4-2-7-6-7-11v5zm22-18c-5 0-9 4-9 9s4 9 9 9 9-4 9-9-4-9-9-9z"/>
  <path fill="#c7d2fe" fill-opacity=".9" d="M44 22c2 1 3 3 3 5 0 4-3 7-7 7-1 0-2 0-3-.5 2-2 3-5 3-8 0-1 0-2-.2-3.2 1.5-.2 3-.2 4.2.7z"/>
</svg>
